<svg version="1.1" id="Layer_1" xmlns="http://www.w3.org/2000/svg" xmlns:xlink="http://www.w3.org/1999/xlink" x="0px" y="0px"
	 width="100%" viewBox="0 0 1587 1509" enable-background="new 0 0 1587 1509" xml:space="preserve">
<path fill="#3C3C3C" opacity="1.000000" stroke="none" 
	d="
M1.000000,358.000000 
	C1.000000,238.666687 1.000000,119.833374 1.000000,1.000048 
	C529.999878,1.000032 1058.999756,1.000032 1587.999756,1.000016 
	C1587.999756,503.999786 1587.999756,1006.999573 1587.999878,1509.999512 
	C1059.000244,1509.999756 530.000610,1509.999756 1.000451,1509.999878 
	C1.000000,1126.166626 1.000000,742.333313 1.000000,358.000000 
M2.036107,658.500000 
	C2.036107,941.777527 2.036107,1225.055054 2.036107,1508.648438 
	C530.554565,1508.648438 1058.442505,1508.648438 1586.647217,1508.648438 
	C1586.647217,1006.447510 1586.647217,504.559875 1586.647217,2.354173 
	C1058.446899,2.354173 530.559875,2.354173 2.036187,2.354173 
	C2.036187,220.946014 2.036187,439.223022 2.036107,658.500000 
z"/>
<path fill="#000000" opacity="1.000000" stroke="none" 
	d="
M2.036147,658.000000 
	C2.036187,439.223022 2.036187,220.946014 2.036187,2.354173 
	C530.559875,2.354173 1058.446899,2.354173 1586.647217,2.354173 
	C1586.647217,504.559875 1586.647217,1006.447510 1586.647217,1508.648438 
	C1058.442505,1508.648438 530.554565,1508.648438 2.036107,1508.648438 
	C2.036107,1225.055054 2.036107,941.777527 2.036147,658.000000 
M1415.968750,1097.486816 
	C1421.014893,1088.497314 1426.599854,1079.762817 1430.999756,1070.467407 
	C1441.465942,1048.355469 1451.678589,1026.111694 1461.426392,1003.674744 
	C1473.722778,975.371521 1482.279419,945.778870 1489.929077,915.948975 
	C1493.386841,902.465820 1496.173340,888.796997 1498.854248,875.131958 
	C1501.507446,861.608032 1504.029053,848.035156 1505.889648,834.385864 
	C1507.473022,822.769958 1508.140137,811.022705 1509.020142,799.319092 
	C1510.100952,784.946045 1511.459595,770.569763 1511.812012,756.173157 
	C1512.151123,742.317627 1511.512573,728.429138 1511.023804,714.564941 
	C1510.517822,700.207153 1510.395630,685.781006 1508.809448,671.528992 
	C1506.486084,650.654175 1503.572876,629.806641 1499.865479,609.135010 
	C1496.103882,588.161072 1492.092163,567.128235 1486.332031,546.643677 
	C1479.594604,522.684021 1471.721191,498.951263 1462.732056,475.743011 
	C1453.421997,451.705566 1443.400635,427.778351 1431.465820,404.966766 
	C1418.189575,379.591431 1402.824219,355.264069 1387.538940,331.003082 
	C1379.367554,318.033356 1369.678955,305.985779 1360.251465,293.851105 
	C1351.722290,282.872742 1342.923218,272.069855 1333.686890,261.684174 
	C1323.010376,249.679184 1312.028931,237.908920 1300.618652,226.603073 
	C1289.327148,215.414795 1277.484497,204.765656 1265.602173,194.196304 
	C1257.070557,186.607346 1248.299194,179.247360 1239.234985,172.307449 
	C1226.174316,162.307907 1212.965332,152.471146 1199.421387,143.143066 
	C1186.265625,134.082306 1172.914795,125.218109 1159.088013,117.241043 
	C1143.622559,108.318459 1127.676270,100.185562 1111.659912,92.274284 
	C1096.570068,84.820656 1081.344727,77.541672 1065.761719,71.213341 
	C1049.138672,64.462669 1032.102173,58.693413 1015.103027,52.916939 
	C1002.413818,48.605011 989.612976,44.517963 976.650757,41.140972 
	C962.260925,37.392067 947.674011,34.352406 933.092957,31.399179 
	C921.047668,28.959543 908.914978,26.905251 896.765808,25.039719 
	C887.807251,23.664114 878.770386,22.762442 869.749084,21.839035 
	C857.003418,20.534422 844.249817,19.283028 831.480225,18.248194 
	C824.451599,17.678598 817.385315,17.408396 810.332581,17.336893 
	C794.406128,17.175428 778.457886,16.715210 762.555664,17.332039 
	C748.058838,17.894356 733.599548,19.600956 719.144836,21.018572 
	C707.110107,22.198856 695.016846,23.163984 683.109680,25.173378 
	C666.490662,27.977915 649.913330,31.212408 633.514893,35.093857 
	C614.215027,39.662048 594.870117,44.325882 576.011414,50.397587 
	C554.026917,57.475647 532.313599,65.548622 510.922943,74.269867 
	C494.103180,81.127518 477.720306,89.176765 461.571045,97.524078 
	C446.376587,105.377869 431.420471,113.802910 416.939819,122.900398 
	C397.557587,135.077316 378.437469,147.726181 359.779755,160.981659 
	C348.079529,169.294113 337.122925,178.742401 326.391510,188.308029 
	C310.982422,202.043259 295.436188,215.726959 281.132050,230.573059 
	C263.911652,248.445938 247.248688,266.959595 231.610977,286.223999 
	C216.574020,304.748322 202.290558,324.022278 189.265091,344.002777 
	C176.095428,364.204529 164.226898,385.334808 152.959152,406.676453 
	C137.587341,435.791443 124.498306,465.987762 113.564903,497.100525 
	C103.223450,526.528809 94.234589,556.356079 88.141670,586.932922 
	C84.006195,607.686523 80.883209,628.668823 78.073402,649.651306 
	C75.788887,666.711182 74.049484,683.893005 73.165039,701.077148 
	C72.345787,716.994629 72.958313,732.987000 72.980392,748.946289 
	C73.014473,773.568665 74.545227,798.091492 77.977776,822.484192 
	C80.016472,836.971680 81.359367,851.599121 84.245476,865.915588 
	C88.553246,887.284302 93.365524,908.591248 99.051590,929.630249 
	C104.088615,948.267822 110.011238,966.723511 116.650322,984.854004 
	C122.966423,1002.102539 130.059830,1019.140686 137.997192,1035.703003 
	C148.510895,1057.641235 159.370178,1079.494141 171.545654,1100.536011 
	C188.004807,1128.981323 206.679474,1156.087402 227.552963,1181.513672 
	C241.645889,1198.680542 256.305847,1215.426392 271.454834,1231.667725 
	C283.682495,1244.776978 296.746979,1257.147949 309.948212,1269.294312 
	C321.608093,1280.022461 333.442352,1290.697876 346.138947,1300.132568 
	C367.973633,1316.356934 390.237274,1332.052856 412.905792,1347.088867 
	C427.535461,1356.792480 442.902039,1365.513916 458.494385,1373.603638 
	C476.357147,1382.871094 494.598511,1391.508545 513.112000,1399.394653 
	C532.289612,1407.563843 551.852966,1414.893921 571.511841,1421.843872 
	C584.253906,1426.348633 597.452026,1429.575928 610.479553,1433.256226 
	C618.814270,1435.610718 627.146118,1438.038452 635.595459,1439.907959 
	C645.830505,1442.172363 656.168213,1443.997070 666.498840,1445.797974 
	C675.418884,1447.353149 684.373657,1448.737549 693.345642,1449.958252 
	C701.648743,1451.087769 709.983826,1452.014160 718.324646,1452.825806 
	C730.134644,1453.975098 741.947327,1455.206055 753.788330,1455.893311 
	C763.199768,1456.439575 772.655762,1456.203613 782.091431,1456.350830 
	C791.608093,1456.499268 801.151184,1457.227295 810.634399,1456.747559 
	C827.467773,1455.896118 844.287048,1454.562012 861.069885,1452.980591 
	C875.395813,1451.630371 889.775024,1450.288330 903.927246,1447.790283 
	C922.744324,1444.468994 941.479675,1440.499756 960.036316,1435.938843 
	C978.902283,1431.301636 997.787598,1426.426636 1016.156677,1420.165894 
	C1038.375854,1412.592896 1060.420898,1404.266602 1081.878174,1394.767944 
	C1103.670044,1385.121094 1125.011475,1374.297485 1145.884155,1362.781860 
	C1164.162476,1352.697632 1181.658447,1341.157959 1199.224121,1329.833618 
	C1209.206055,1323.398315 1218.904053,1316.448120 1228.248535,1309.116089 
	C1242.059570,1298.279297 1255.670044,1287.159790 1268.939087,1275.667725 
	C1280.827759,1265.371338 1292.511230,1254.778564 1303.602417,1243.636841 
	C1315.032227,1232.155029 1325.958252,1220.127686 1336.515869,1207.833496 
	C1347.802612,1194.690552 1358.730347,1181.206299 1369.202026,1167.406250 
	C1378.453247,1155.214478 1387.072510,1142.523926 1395.575928,1129.789795 
	C1402.508911,1119.407349 1408.858643,1108.635254 1415.968750,1097.486816 
z"/>
<path fill="#F8F8F8" opacity="1.000000" stroke="none" 
	d="
M1415.717896,1097.761353 
	C1408.858643,1108.635254 1402.508911,1119.407349 1395.575928,1129.789795 
	C1387.072510,1142.523926 1378.453247,1155.214478 1369.202026,1167.406250 
	C1358.730347,1181.206299 1347.802612,1194.690552 1336.515869,1207.833496 
	C1325.958252,1220.127686 1315.032227,1232.155029 1303.602417,1243.636841 
	C1292.511230,1254.778564 1280.827759,1265.371338 1268.939087,1275.667725 
	C1255.670044,1287.159790 1242.059570,1298.279297 1228.248535,1309.116089 
	C1218.904053,1316.448120 1209.206055,1323.398315 1199.224121,1329.833618 
	C1181.658447,1341.157959 1164.162476,1352.697632 1145.884155,1362.781860 
	C1125.011475,1374.297485 1103.670044,1385.121094 1081.878174,1394.767944 
	C1060.420898,1404.266602 1038.375854,1412.592896 1016.156677,1420.165894 
	C997.787598,1426.426636 978.902283,1431.301636 960.036316,1435.938843 
	C941.479675,1440.499756 922.744324,1444.468994 903.927246,1447.790283 
	C889.775024,1450.288330 875.395813,1451.630371 861.069885,1452.980591 
	C844.287048,1454.562012 827.467773,1455.896118 810.634399,1456.747559 
	C801.151184,1457.227295 791.608093,1456.499268 782.091431,1456.350830 
	C772.655762,1456.203613 763.199768,1456.439575 753.788330,1455.893311 
	C741.947327,1455.206055 730.134644,1453.975098 718.324646,1452.825806 
	C709.983826,1452.014160 701.648743,1451.087769 693.345642,1449.958252 
	C684.373657,1448.737549 675.418884,1447.353149 666.498840,1445.797974 
	C656.168213,1443.997070 645.830505,1442.172363 635.595459,1439.907959 
	C627.146118,1438.038452 618.814270,1435.610718 610.479553,1433.256226 
	C597.452026,1429.575928 584.253906,1426.348633 571.511841,1421.843872 
	C551.852966,1414.893921 532.289612,1407.563843 513.112000,1399.394653 
	C494.598511,1391.508545 476.357147,1382.871094 458.494385,1373.603638 
	C442.902039,1365.513916 427.535461,1356.792480 412.905792,1347.088867 
	C390.237274,1332.052856 367.973633,1316.356934 346.138947,1300.132568 
	C333.442352,1290.697876 321.608093,1280.022461 309.948212,1269.294312 
	C296.746979,1257.147949 283.682495,1244.776978 271.454834,1231.667725 
	C256.305847,1215.426392 241.645889,1198.680542 227.552963,1181.513672 
	C206.679474,1156.087402 188.004807,1128.981323 171.545654,1100.536011 
	C159.370178,1079.494141 148.510895,1057.641235 137.997192,1035.703003 
	C130.059830,1019.140686 122.966423,1002.102539 116.650322,984.854004 
	C110.011238,966.723511 104.088615,948.267822 99.051590,929.630249 
	C93.365524,908.591248 88.553246,887.284302 84.245476,865.915588 
	C81.359367,851.599121 80.016472,836.971680 77.977776,822.484192 
	C74.545227,798.091492 73.014473,773.568665 72.980392,748.946289 
	C72.958313,732.987000 72.345787,716.994629 73.165039,701.077148 
	C74.049484,683.893005 75.788887,666.711182 78.073402,649.651306 
	C80.883209,628.668823 84.006195,607.686523 88.141670,586.932922 
	C94.234589,556.356079 103.223450,526.528809 113.564903,497.100525 
	C124.498306,465.987762 137.587341,435.791443 152.959152,406.676453 
	C164.226898,385.334808 176.095428,364.204529 189.265091,344.002777 
	C202.290558,324.022278 216.574020,304.748322 231.610977,286.223999 
	C247.248688,266.959595 263.911652,248.445938 281.132050,230.573059 
	C295.436188,215.726959 310.982422,202.043259 326.391510,188.308029 
	C337.122925,178.742401 348.079529,169.294113 359.779755,160.981659 
	C378.437469,147.726181 397.557587,135.077316 416.939819,122.900398 
	C431.420471,113.802910 446.376587,105.377869 461.571045,97.524078 
	C477.720306,89.176765 494.103180,81.127518 510.922943,74.269867 
	C532.313599,65.548622 554.026917,57.475647 576.011414,50.397587 
	C594.870117,44.325882 614.215027,39.662048 633.514893,35.093857 
	C649.913330,31.212408 666.490662,27.977915 683.109680,25.173378 
	C695.016846,23.163984 707.110107,22.198856 719.144836,21.018572 
	C733.599548,19.600956 748.058838,17.894356 762.555664,17.332039 
	C778.457886,16.715210 794.406128,17.175428 810.332581,17.336893 
	C817.385315,17.408396 824.451599,17.678598 831.480225,18.248194 
	C844.249817,19.283028 857.003418,20.534422 869.749084,21.839035 
	C878.770386,22.762442 887.807251,23.664114 896.765808,25.039719 
	C908.914978,26.905251 921.047668,28.959543 933.092957,31.399179 
	C947.674011,34.352406 962.260925,37.392067 976.650757,41.140972 
	C989.612976,44.517963 1002.413818,48.605011 1015.103027,52.916939 
	C1032.102173,58.693413 1049.138672,64.462669 1065.761719,71.213341 
	C1081.344727,77.541672 1096.570068,84.820656 1111.659912,92.274284 
	C1127.676270,100.185562 1143.622559,108.318459 1159.088013,117.241043 
	C1172.914795,125.218109 1186.265625,134.082306 1199.421387,143.143066 
	C1212.965332,152.471146 1226.174316,162.307907 1239.234985,172.307449 
	C1248.299194,179.247360 1257.070557,186.607346 1265.602173,194.196304 
	C1277.484497,204.765656 1289.327148,215.414795 1300.618652,226.603073 
	C1312.028931,237.908920 1323.010376,249.679184 1333.686890,261.684174 
	C1342.923218,272.069855 1351.722290,282.872742 1360.251465,293.851105 
	C1369.678955,305.985779 1379.367554,318.033356 1387.538940,331.003082 
	C1402.824219,355.264069 1418.189575,379.591431 1431.465820,404.966766 
	C1443.400635,427.778351 1453.421997,451.705566 1462.732056,475.743011 
	C1471.721191,498.951263 1479.594604,522.684021 1486.332031,546.643677 
	C1492.092163,567.128235 1496.103882,588.161072 1499.865479,609.135010 
	C1503.572876,629.806641 1506.486084,650.654175 1508.809448,671.528992 
	C1510.395630,685.781006 1510.517822,700.207153 1511.023804,714.564941 
	C1511.512573,728.429138 1512.151123,742.317627 1511.812012,756.173157 
	C1511.459595,770.569763 1510.100952,784.946045 1509.020142,799.319092 
	C1508.140137,811.022705 1507.473022,822.769958 1505.889648,834.385864 
	C1504.029053,848.035156 1501.507446,861.608032 1498.854248,875.131958 
	C1496.173340,888.796997 1493.386841,902.465820 1489.929077,915.948975 
	C1482.279419,945.778870 1473.722778,975.371521 1461.426392,1003.674744 
	C1451.678589,1026.111694 1441.465942,1048.355469 1430.999756,1070.467407 
	C1426.599854,1079.762817 1421.014893,1088.497314 1415.717896,1097.761353 
M1296.989502,244.507965 
	C1282.102295,230.576172 1267.390503,216.450821 1252.286255,202.758545 
	C1230.380371,182.900665 1206.655640,165.320389 1181.965332,149.135696 
	C1166.467285,138.976593 1150.424316,129.600067 1134.279053,120.486862 
	C1100.506226,101.423584 1065.577148,84.790985 1028.596680,72.832191 
	C1008.522827,66.340698 988.383362,60.017654 968.105042,54.206390 
	C956.455811,50.867989 944.544495,48.296391 932.616760,46.114822 
	C917.468506,43.344231 902.241760,40.800209 886.944458,39.095806 
	C864.802917,36.628830 842.587463,34.725910 820.363770,33.140129 
	C810.127014,32.409679 799.795959,32.987957 789.507629,32.997929 
	C779.646057,33.007488 769.746643,32.509747 759.931335,33.197533 
	C743.100891,34.376896 726.284119,35.984802 709.533936,38.010937 
	C692.836426,40.030697 676.117676,42.211830 659.611145,45.379269 
	C643.070129,48.553322 626.787354,53.065487 610.377991,56.934292 
	C581.562683,63.727989 553.713745,73.558144 526.292786,84.507446 
	C509.245605,91.314453 492.497437,98.984497 476.047089,107.138779 
	C460.459778,114.865257 445.262360,123.430092 430.217255,132.182770 
	C417.399963,139.639404 404.868988,147.626816 392.535187,155.864304 
	C381.848206,163.001892 371.489044,170.651932 361.222534,178.390701 
	C353.039246,184.559158 345.116455,191.086197 337.256439,197.667160 
	C328.871765,204.687424 320.331726,211.583435 312.512238,219.203568 
	C299.555908,231.829590 286.954346,244.833328 274.527496,257.984253 
	C266.239105,266.755585 258.232849,275.829865 250.608154,285.182617 
	C241.443222,296.424713 232.508194,307.883972 224.040390,319.656860 
	C214.520721,332.892181 205.109833,346.261749 196.603500,360.155731 
	C185.983414,377.502228 176.193146,395.364716 166.300476,413.146820 
	C152.394562,438.142700 141.170761,464.408752 131.254700,491.169739 
	C124.638618,509.024902 119.128151,527.321167 113.836189,545.626221 
	C109.065819,562.127014 104.559296,578.768066 101.218246,595.601685 
	C97.124611,616.227112 93.576424,637.029419 91.249405,657.917603 
	C88.916237,678.861084 88.036438,699.990479 87.174271,721.065186 
	C86.627014,734.442322 87.184212,747.869934 87.425003,761.271729 
	C87.547913,768.112122 87.783676,774.973511 88.459198,781.776611 
	C90.140495,798.709106 91.925613,815.635681 94.013885,832.521912 
	C95.462418,844.235168 96.917618,855.998291 99.377129,867.524231 
	C103.452988,886.624634 107.841919,905.689148 113.024918,924.513794 
	C118.245621,943.475464 123.583801,962.519592 130.699432,980.816284 
	C140.107147,1005.006775 151.014557,1028.632812 161.788315,1052.268433 
	C174.754150,1080.713135 191.459305,1107.068726 209.284439,1132.629639 
	C221.370911,1149.961548 234.436768,1166.651855 247.747192,1183.075928 
	C259.009491,1196.972900 270.691071,1210.625610 283.207642,1223.385254 
	C297.719543,1238.178955 313.169952,1252.073364 328.526428,1266.012817 
	C357.581238,1292.386719 389.274811,1315.402832 422.785095,1335.607178 
	C447.641449,1350.593750 473.665253,1363.730957 499.656555,1376.716064 
	C515.523499,1384.643188 532.246094,1390.889038 548.716919,1397.562988 
	C557.333374,1401.054443 566.170898,1404.042236 575.026733,1406.890381 
	C585.390015,1410.223145 595.842285,1413.298096 606.328857,1416.223511 
	C617.364075,1419.302246 628.427979,1422.320312 639.586487,1424.901733 
	C649.309692,1427.151001 659.140198,1429.018555 668.997498,1430.588379 
	C687.703369,1433.567261 706.422791,1436.528687 725.214233,1438.876221 
	C736.231506,1440.252441 747.397461,1440.445190 758.498291,1441.142456 
	C768.294067,1441.757935 778.085510,1442.577637 787.891663,1442.852783 
	C795.915283,1443.077881 803.958252,1442.661743 811.991455,1442.477051 
	C819.041443,1442.314941 826.124939,1442.456177 833.132141,1441.803345 
	C851.921570,1440.052612 870.731995,1438.351807 889.430298,1435.854370 
	C904.010376,1433.907104 918.524048,1431.206787 932.904968,1428.091675 
	C949.540466,1424.488037 966.143616,1420.569702 982.495056,1415.864380 
	C1001.650330,1410.352173 1020.794861,1404.577515 1039.436157,1397.566406 
	C1058.774536,1390.293213 1077.791138,1382.000122 1096.423706,1373.059570 
	C1116.260986,1363.541016 1136.072144,1353.704834 1154.822754,1342.252319 
	C1177.600098,1328.340210 1199.863770,1313.403198 1221.218140,1297.399658 
	C1240.415527,1283.012573 1258.780273,1267.322144 1276.224976,1250.843872 
	C1293.198364,1234.810913 1309.067261,1217.510742 1324.440674,1199.910522 
	C1338.862427,1183.399658 1352.801880,1166.336670 1365.489014,1148.476318 
	C1379.287720,1129.051392 1391.998535,1108.779297 1404.061646,1088.218384 
	C1414.343262,1070.693970 1423.320557,1052.377441 1432.318481,1034.136963 
	C1437.609863,1023.410339 1441.922241,1012.191956 1446.479736,1001.114502 
	C1451.088867,989.911743 1455.985474,978.785645 1459.803589,967.309021 
	C1465.132568,951.290405 1469.692505,935.010681 1474.357056,918.778198 
	C1477.117920,909.170288 1479.778442,899.509583 1481.884277,889.743408 
	C1484.473267,877.735413 1486.595947,865.619324 1488.626587,853.500793 
	C1490.605347,841.693542 1492.651367,829.869385 1493.879028,817.971313 
	C1495.623291,801.065552 1497.383301,784.103027 1497.787964,767.132568 
	C1498.278564,746.562988 1497.896362,725.934082 1496.905640,705.378418 
	C1495.926392,685.062256 1494.062988,664.768982 1491.928345,644.535156 
	C1490.483887,630.843933 1488.599121,617.120178 1485.664795,603.683289 
	C1481.022827,582.425720 1476.052124,561.184937 1469.894531,540.328491 
	C1463.437866,518.459045 1456.351807,496.674347 1447.825562,475.544800 
	C1438.908691,453.447144 1428.938965,431.639496 1417.624268,410.679565 
	C1404.551270,386.462372 1390.222412,362.838348 1375.084473,339.848541 
	C1363.667358,322.509613 1350.582153,306.193756 1337.386719,290.122589 
	C1324.656250,274.617889 1310.832886,260.010376 1296.989502,244.507965 
z"/>
<path fill="#000000" opacity="1.000000" stroke="none" 
	d="
M1297.239624,244.758331 
	C1310.832886,260.010376 1324.656250,274.617889 1337.386719,290.122589 
	C1350.582153,306.193756 1363.667358,322.509613 1375.084473,339.848541 
	C1390.222412,362.838348 1404.551270,386.462372 1417.624268,410.679565 
	C1428.938965,431.639496 1438.908691,453.447144 1447.825562,475.544800 
	C1456.351807,496.674347 1463.437866,518.459045 1469.894531,540.328491 
	C1476.052124,561.184937 1481.022827,582.425720 1485.664795,603.683289 
	C1488.599121,617.120178 1490.483887,630.843933 1491.928345,644.535156 
	C1494.062988,664.768982 1495.926392,685.062256 1496.905640,705.378418 
	C1497.896362,725.934082 1498.278564,746.562988 1497.787964,767.132568 
	C1497.383301,784.103027 1495.623291,801.065552 1493.879028,817.971313 
	C1492.651367,829.869385 1490.605347,841.693542 1488.626587,853.500793 
	C1486.595947,865.619324 1484.473267,877.735413 1481.884277,889.743408 
	C1479.778442,899.509583 1477.117920,909.170288 1474.357056,918.778198 
	C1469.692505,935.010681 1465.132568,951.290405 1459.803589,967.309021 
	C1455.985474,978.785645 1451.088867,989.911743 1446.479736,1001.114502 
	C1441.922241,1012.191956 1437.609863,1023.410339 1432.318481,1034.136963 
	C1423.320557,1052.377441 1414.343262,1070.693970 1404.061646,1088.218384 
	C1391.998535,1108.779297 1379.287720,1129.051392 1365.489014,1148.476318 
	C1352.801880,1166.336670 1338.862427,1183.399658 1324.440674,1199.910522 
	C1309.067261,1217.510742 1293.198364,1234.810913 1276.224976,1250.843872 
	C1258.780273,1267.322144 1240.415527,1283.012573 1221.218140,1297.399658 
	C1199.863770,1313.403198 1177.600098,1328.340210 1154.822754,1342.252319 
	C1136.072144,1353.704834 1116.260986,1363.541016 1096.423706,1373.059570 
	C1077.791138,1382.000122 1058.774536,1390.293213 1039.436157,1397.566406 
	C1020.794861,1404.577515 1001.650330,1410.352173 982.495056,1415.864380 
	C966.143616,1420.569702 949.540466,1424.488037 932.904968,1428.091675 
	C918.524048,1431.206787 904.010376,1433.907104 889.430298,1435.854370 
	C870.731995,1438.351807 851.921570,1440.052612 833.132141,1441.803345 
	C826.124939,1442.456177 819.041443,1442.314941 811.991455,1442.477051 
	C803.958252,1442.661743 795.915283,1443.077881 787.891663,1442.852783 
	C778.085510,1442.577637 768.294067,1441.757935 758.498291,1441.142456 
	C747.397461,1440.445190 736.231506,1440.252441 725.214233,1438.876221 
	C706.422791,1436.528687 687.703369,1433.567261 668.997498,1430.588379 
	C659.140198,1429.018555 649.309692,1427.151001 639.586487,1424.901733 
	C628.427979,1422.320312 617.364075,1419.302246 606.328857,1416.223511 
	C595.842285,1413.298096 585.390015,1410.223145 575.026733,1406.890381 
	C566.170898,1404.042236 557.333374,1401.054443 548.716919,1397.562988 
	C532.246094,1390.889038 515.523499,1384.643188 499.656555,1376.716064 
	C473.665253,1363.730957 447.641449,1350.593750 422.785095,1335.607178 
	C389.274811,1315.402832 357.581238,1292.386719 328.526428,1266.012817 
	C313.169952,1252.073364 297.719543,1238.178955 283.207642,1223.385254 
	C270.691071,1210.625610 259.009491,1196.972900 247.747192,1183.075928 
	C234.436768,1166.651855 221.370911,1149.961548 209.284439,1132.629639 
	C191.459305,1107.068726 174.754150,1080.713135 161.788315,1052.268433 
	C151.014557,1028.632812 140.107147,1005.006775 130.699432,980.816284 
	C123.583801,962.519592 118.245621,943.475464 113.024918,924.513794 
	C107.841919,905.689148 103.452988,886.624634 99.377129,867.524231 
	C96.917618,855.998291 95.462418,844.235168 94.013885,832.521912 
	C91.925613,815.635681 90.140495,798.709106 88.459198,781.776611 
	C87.783676,774.973511 87.547913,768.112122 87.425003,761.271729 
	C87.184212,747.869934 86.627014,734.442322 87.174271,721.065186 
	C88.036438,699.990479 88.916237,678.861084 91.249405,657.917603 
	C93.576424,637.029419 97.124611,616.227112 101.218246,595.601685 
	C104.559296,578.768066 109.065819,562.127014 113.836189,545.626221 
	C119.128151,527.321167 124.638618,509.024902 131.254700,491.169739 
	C141.170761,464.408752 152.394562,438.142700 166.300476,413.146820 
	C176.193146,395.364716 185.983414,377.502228 196.603500,360.155731 
	C205.109833,346.261749 214.520721,332.892181 224.040390,319.656860 
	C232.508194,307.883972 241.443222,296.424713 250.608154,285.182617 
	C258.232849,275.829865 266.239105,266.755585 274.527496,257.984253 
	C286.954346,244.833328 299.555908,231.829590 312.512238,219.203568 
	C320.331726,211.583435 328.871765,204.687424 337.256439,197.667160 
	C345.116455,191.086197 353.039246,184.559158 361.222534,178.390701 
	C371.489044,170.651932 381.848206,163.001892 392.535187,155.864304 
	C404.868988,147.626816 417.399963,139.639404 430.217255,132.182770 
	C445.262360,123.430092 460.459778,114.865257 476.047089,107.138779 
	C492.497437,98.984497 509.245605,91.314453 526.292786,84.507446 
	C553.713745,73.558144 581.562683,63.727989 610.377991,56.934292 
	C626.787354,53.065487 643.070129,48.553322 659.611145,45.379269 
	C676.117676,42.211830 692.836426,40.030697 709.533936,38.010937 
	C726.284119,35.984802 743.100891,34.376896 759.931335,33.197533 
	C769.746643,32.509747 779.646057,33.007488 789.507629,32.997929 
	C799.795959,32.987957 810.127014,32.409679 820.363770,33.140129 
	C842.587463,34.725910 864.802917,36.628830 886.944458,39.095806 
	C902.241760,40.800209 917.468506,43.344231 932.616760,46.114822 
	C944.544495,48.296391 956.455811,50.867989 968.105042,54.206390 
	C988.383362,60.017654 1008.522827,66.340698 1028.596680,72.832191 
	C1065.577148,84.790985 1100.506226,101.423584 1134.279053,120.486862 
	C1150.424316,129.600067 1166.467285,138.976593 1181.965332,149.135696 
	C1206.655640,165.320389 1230.380371,182.900665 1252.286255,202.758545 
	C1267.390503,216.450821 1282.102295,230.576172 1297.239624,244.758331 
M1208.004395,656.513184 
	C1208.004883,653.681458 1208.008789,650.849670 1208.004883,648.017944 
	C1207.996582,641.916626 1206.072021,638.845642 1200.030884,638.261414 
	C1187.472778,637.046875 1174.928345,637.462646 1163.593872,643.992432 
	C1161.548218,645.170898 1159.245728,648.065125 1159.211182,650.201965 
	C1159.053223,659.950867 1159.628662,669.713562 1160.021851,679.467957 
	C1160.106445,681.567810 1160.528442,683.653931 1160.795044,685.746399 
	C1160.411621,686.058105 1160.028198,686.369812 1159.644653,686.681519 
	C1155.088135,677.429138 1146.992554,674.599670 1137.911133,673.390198 
	C1126.808472,671.911499 1116.742065,674.284241 1109.089722,682.609009 
	C1101.018311,691.389771 1097.655762,702.582153 1097.173584,714.198364 
	C1096.693359,725.763855 1097.029419,737.449524 1098.130493,748.975220 
	C1100.041382,768.977844 1108.210938,780.440491 1127.395386,783.591248 
	C1138.269409,785.377136 1153.933716,783.089111 1158.161499,768.654480 
	C1158.366943,767.952881 1159.493774,767.521057 1160.538452,766.686523 
	C1161.088623,769.767822 1161.731323,772.293274 1161.958008,774.855530 
	C1162.456665,780.494385 1163.687256,782.040466 1169.181763,781.954285 
	C1179.446167,781.793335 1189.717651,781.532959 1199.963745,780.931641 
	C1207.262085,780.503296 1208.004395,779.369507 1208.004395,771.945923 
	C1208.004517,733.800232 1208.004395,695.654480 1208.004395,656.513184 
M1046.790161,782.004211 
	C1056.384766,781.670471 1065.985596,781.456848 1075.572021,780.964600 
	C1083.083862,780.578735 1084.004395,779.416565 1084.004395,771.841248 
	C1084.004395,730.866455 1084.004761,689.891602 1084.003906,648.916809 
	C1084.003784,641.155640 1080.954224,638.136292 1072.985474,637.995300 
	C1071.487549,637.968811 1069.987793,637.970215 1068.492554,637.889832 
	C1058.126831,637.332947 1048.219849,639.122498 1039.128540,644.214355 
	C1037.366211,645.201477 1035.200073,647.522278 1035.188477,649.241089 
	C1035.122803,658.997620 1035.620972,668.759521 1036.008301,678.516357 
	C1036.104736,680.944763 1036.500610,683.361145 1036.758911,685.783081 
	C1031.022949,678.523987 1024.117432,675.270813 1015.285828,673.722717 
	C996.673645,670.460022 982.563416,679.938232 977.029297,696.625549 
	C970.404846,716.600464 971.906372,737.027161 975.369019,757.220032 
	C976.767578,765.375549 980.806396,773.053711 988.422058,777.968018 
	C995.930542,782.813171 1004.199890,784.768555 1012.914429,783.902405 
	C1022.727478,782.927124 1031.045166,779.272827 1034.205200,768.647888 
	C1034.413452,767.947510 1035.560547,767.526367 1036.609131,766.712891 
	C1036.863281,768.358337 1037.010254,769.477051 1037.214233,770.585266 
	C1037.448242,771.856934 1037.891846,773.109863 1037.968018,774.387390 
	C1038.314453,780.199585 1039.748657,781.623718 1046.790161,782.004211 
M1273.880981,735.532715 
	C1273.255371,730.670715 1272.196411,725.818115 1272.090088,720.944763 
	C1271.828369,708.951538 1271.917603,696.947693 1272.048706,684.950195 
	C1272.099243,680.328613 1270.219116,677.022522 1265.815796,676.110596 
	C1251.599609,673.166260 1238.037354,675.450439 1225.345581,682.406555 
	C1223.844360,683.229370 1222.159302,685.421509 1222.144653,686.993469 
	C1221.958740,707.163879 1221.153687,727.431396 1226.210449,747.208801 
	C1227.715576,753.095276 1230.589111,758.500610 1236.107666,762.072449 
	C1247.561768,769.486084 1259.646606,769.338074 1271.970825,765.153076 
	C1276.352173,763.665283 1280.416016,761.242432 1284.995728,759.070618 
	C1284.995728,762.433533 1284.995972,765.413330 1284.995728,768.393188 
	C1284.994873,777.737793 1282.723389,780.424316 1273.301270,779.860596 
	C1264.506958,779.334290 1255.728516,777.973022 1247.040039,776.432861 
	C1240.443604,775.263611 1240.394775,774.050842 1237.055420,781.220276 
	C1234.870483,785.911438 1233.784790,791.102234 1231.957275,795.975647 
	C1229.998047,801.201111 1232.304199,804.607178 1236.913574,805.845276 
	C1244.922607,807.996460 1253.117676,810.493408 1261.296509,810.732788 
	C1273.791504,811.098389 1286.593750,811.014160 1298.808105,808.702820 
	C1320.311279,804.633667 1331.426270,792.749634 1331.867798,770.394836 
	C1332.433716,741.741821 1332.010864,713.069153 1332.000122,684.404907 
	C1331.997925,678.470825 1329.842041,675.465942 1324.063721,675.124207 
	C1311.121216,674.358826 1298.442139,675.651367 1286.625854,681.705872 
	C1283.341675,683.388794 1281.862915,685.625000 1281.912964,689.507263 
	C1282.112671,705.003357 1282.019409,720.503662 1281.974365,736.002197 
	C1281.965576,739.007751 1283.054932,743.383179 1278.814697,743.704041 
	C1274.530273,744.028137 1274.714111,739.471558 1273.880981,735.532715 
M722.995789,677.500000 
	C722.995850,707.996216 722.995056,738.492432 722.996521,768.988647 
	C722.996826,775.484009 724.925476,778.665894 731.325928,779.790894 
	C741.641174,781.604126 752.068848,783.476685 762.493774,783.778259 
	C773.839050,784.106445 785.329895,783.366272 796.586182,781.834351 
	C811.799622,779.763916 824.005798,772.497864 829.344788,757.135132 
	C836.261230,737.233032 836.674377,716.798706 832.536438,696.315796 
	C831.059082,689.003113 827.641968,682.411987 821.044556,677.980713 
	C810.445923,670.861816 792.274109,671.312622 780.055847,679.540161 
	C777.142456,681.502075 774.513123,683.885864 771.274780,686.455200 
	C771.151001,684.726685 770.968689,683.759644 771.031006,682.808716 
	C771.665527,673.115540 772.497864,663.432373 772.945923,653.731140 
	C773.231567,647.546265 771.397949,645.313721 765.453857,644.047241 
	C751.829468,641.144470 739.043396,644.271057 726.931763,650.328918 
	C724.992920,651.298767 723.362427,654.643555 723.173889,657.016418 
	C722.660583,663.474915 722.996460,670.000793 722.995789,677.500000 
M688.546448,782.081726 
	C695.822510,778.356812 703.230286,774.863342 710.328430,770.825623 
	C715.056885,768.135742 715.805481,764.873108 712.977051,760.223450 
	C709.822327,755.037415 706.289001,750.059387 702.637756,745.203369 
	C697.914490,738.921448 692.911438,732.849792 689.096924,728.035645 
	C696.209717,716.503357 703.173584,705.978760 709.301880,694.988342 
	C712.959961,688.427856 711.629761,684.921265 704.728516,682.082275 
	C696.900818,678.862122 688.805481,675.940796 680.550354,674.197083 
	C669.202026,671.800049 667.592834,673.184998 665.030334,683.427979 
	C662.616028,693.078491 660.390930,702.776611 657.922363,712.412781 
	C657.555603,713.844177 656.307861,715.049866 655.467773,716.359985 
	C654.980103,716.111816 654.492371,715.863647 654.004700,715.615479 
	C654.004700,713.801697 654.004639,711.987976 654.004639,710.174194 
	C654.004822,689.514465 653.766113,668.850220 654.158997,648.197937 
	C654.268921,642.422180 650.948853,638.727051 646.073853,638.269775 
	C633.366760,637.077942 620.675476,637.413208 609.108398,644.005676 
	C605.982544,645.787109 603.923706,648.145203 603.936646,652.311523 
	C604.063110,692.964111 604.072449,733.617432 603.936157,774.270020 
	C603.919006,779.375305 606.330078,781.923340 610.856384,781.894104 
	C622.784790,781.817078 634.821350,782.113281 646.598450,780.588623 
	C654.848389,779.520508 654.008545,781.072205 654.004822,771.722168 
	C654.003784,769.056396 654.228577,766.367371 653.954956,763.730042 
	C653.482788,759.179016 656.221497,756.632629 659.264465,753.752258 
	C659.626343,754.586487 659.838989,754.998169 659.987915,755.431763 
	C662.744995,763.460571 665.173401,771.621643 668.348389,779.481262 
	C670.832764,785.631226 673.298035,786.525024 679.431946,784.999146 
	C682.274353,784.291992 685.049805,783.315857 688.546448,782.081726 
M849.983948,757.522461 
	C851.714539,767.473938 855.341309,775.938477 865.557556,780.292969 
	C873.377930,783.626282 881.529785,784.903564 889.657593,783.759583 
	C899.176392,782.419861 907.705688,778.620056 910.677856,767.972595 
	C910.798523,767.540405 911.671875,767.318359 912.671204,766.706665 
	C913.162903,769.694702 913.678772,772.215637 913.976257,774.762085 
	C914.651733,780.543030 916.130005,782.091187 921.954956,781.971191 
	C931.889465,781.766479 941.829163,781.510559 951.748108,780.948181 
	C959.510193,780.508179 960.682312,779.020569 960.682373,771.447815 
	C960.682556,747.463562 960.682617,723.479370 960.682373,699.495117 
	C960.682312,694.498413 960.681824,689.501648 960.679504,684.504944 
	C960.677185,679.750793 959.078064,675.923523 953.829773,675.408447 
	C940.217529,674.072388 926.904724,675.362488 914.398743,681.347656 
	C911.699219,682.639587 910.878052,685.185669 910.904724,688.411072 
	C911.077148,709.229309 910.964966,730.049744 911.025574,750.869202 
	C911.033875,753.733643 910.698303,755.944519 907.493408,757.087585 
	C902.258667,758.954468 898.398499,755.615906 898.046692,748.248840 
	C897.571899,738.305054 897.190613,728.351807 897.046387,718.398621 
	C896.877502,706.742065 896.844727,695.077759 897.089600,683.423950 
	C897.181702,679.039307 895.138611,676.804932 891.335205,676.072327 
	C877.872498,673.479004 864.887207,675.136841 852.410339,680.868774 
	C849.233276,682.328369 847.859619,684.380737 847.900024,688.121948 
	C848.103149,706.940735 847.884949,725.763916 848.078735,744.582886 
	C848.120300,748.614197 849.255615,752.634155 849.983948,757.522461 
M369.968384,769.399719 
	C374.294342,776.580688 380.757935,780.552673 388.818787,782.464355 
	C396.648346,784.321045 404.311188,784.442932 412.174316,782.473267 
	C420.568878,780.370483 424.051666,773.350098 428.489868,765.547974 
	C429.175446,769.861145 429.752960,772.423096 429.958771,775.014526 
	C430.374634,780.250427 431.897186,782.042542 437.187775,781.955994 
	C447.463745,781.787720 457.749268,781.563721 468.003754,780.927063 
	C475.851593,780.440002 476.005371,779.948120 476.005493,771.994263 
	C476.005676,760.830078 476.135895,749.664001 475.969299,738.502319 
	C475.798645,727.071289 476.204254,715.534058 474.764374,704.246521 
	C473.261597,692.466125 466.290131,683.469360 455.079376,678.900330 
	C437.807831,671.861023 419.924622,671.377136 401.875488,675.590942 
	C392.445770,677.792297 382.969055,680.082275 375.181702,686.264160 
	C373.687195,687.450500 372.204559,690.119751 372.481323,691.817200 
	C373.728607,699.467651 377.515930,705.919617 382.911774,711.558228 
	C385.471161,714.232788 387.544373,714.175354 390.737183,712.711853 
	C397.250885,709.726013 403.905212,706.919434 410.733490,704.778809 
	C419.874390,701.913208 426.318939,707.029419 426.504333,716.316406 
	C417.640930,717.211975 408.757568,717.759338 399.991943,719.084839 
	C389.272034,720.705872 378.984375,724.137695 371.943268,732.900940 
	C362.973419,744.064697 364.488281,756.429260 369.968384,769.399719 
M494.453033,751.061462 
	C492.966705,755.033997 491.081329,758.908020 490.071228,762.998230 
	C487.375519,773.913818 488.310791,775.897156 499.100983,778.995239 
	C519.332642,784.804321 539.888367,785.468079 560.670776,782.065857 
	C578.135864,779.206665 593.839539,767.820374 592.159668,745.494446 
	C591.281677,733.825562 584.447876,723.276672 573.153564,720.048828 
	C564.995605,717.717346 556.583252,716.259399 548.467834,713.805115 
	C545.700256,712.968140 541.430786,710.271240 541.441406,708.445068 
	C541.466125,704.184509 545.894470,703.435242 549.382202,704.109680 
	C557.364868,705.653381 565.238953,707.756836 573.161682,709.613464 
	C576.936829,710.498108 580.324402,710.599976 582.375916,706.282166 
	C583.993652,702.877197 586.293823,699.793274 587.871948,696.373413 
	C593.669800,683.809387 591.639587,679.313171 578.155273,676.035461 
	C560.934814,671.849487 543.359070,671.626526 526.010681,674.329712 
	C517.310425,675.685364 508.310760,678.205566 501.906708,685.538208 
	C496.842560,691.336670 494.598145,697.983643 493.600128,705.602661 
	C492.339081,715.229675 494.010193,723.645203 501.007629,730.400757 
	C507.544189,736.711304 516.348450,738.086121 524.797363,739.986450 
	C529.730896,741.096130 534.797668,741.721497 539.612000,743.193909 
	C541.281982,743.704773 542.832031,745.933655 543.522888,747.729431 
	C543.842346,748.559692 542.178955,751.090149 541.050232,751.367554 
	C537.408447,752.262573 533.403931,753.441406 529.890991,752.742676 
	C522.081421,751.189270 514.408630,748.796448 506.824158,746.306763 
	C499.464325,743.890808 499.136688,743.789490 494.453033,751.061462 
M270.995789,692.565125 
	C270.995667,693.897949 270.988800,695.230835 270.996521,696.563599 
	C271.061340,707.771545 272.852478,709.666626 283.752869,710.108948 
	C284.034149,710.120361 284.304901,710.391907 284.995819,710.768433 
	C284.995819,717.164917 284.744751,723.805298 285.057434,730.419067 
	C285.476685,739.287476 285.966125,748.182007 287.088654,756.980652 
	C288.650330,769.221619 298.254486,779.363403 310.382874,781.947205 
	C315.640289,783.067261 321.043518,783.993469 326.393433,784.066895 
	C333.336731,784.162170 340.350372,783.691162 347.205383,782.632629 
	C349.044189,782.348755 351.515411,779.191711 351.798431,777.097229 
	C352.677887,770.588989 352.925995,763.953918 352.840271,757.375610 
	C352.801605,754.410583 351.174774,752.110840 347.304352,751.876648 
	C342.855316,751.607422 337.594849,749.934204 337.276062,745.157715 
	C336.504974,733.604309 337.025726,721.964783 337.025726,710.004150 
	C339.209625,710.004150 340.846558,710.006348 342.483490,710.003723 
	C349.668518,709.992249 352.054352,708.853577 353.313293,702.005859 
	C354.612823,694.937317 354.865936,687.602356 354.817841,680.389038 
	C354.790802,676.336121 352.591461,673.291260 347.453217,673.917114 
	C344.084473,674.327515 340.625153,673.994629 337.371918,673.994629 
	C337.156647,672.927124 337.036499,672.606506 337.035492,672.285522 
	C337.016602,666.288086 336.748566,660.275513 337.092377,654.298279 
	C337.341309,649.970459 336.986450,645.338562 333.815948,642.955444 
	C330.323578,640.330444 325.508118,638.536377 321.131195,638.205933 
	C311.235504,637.458801 301.554077,639.767517 292.369781,643.401245 
	C287.737335,645.234009 284.675812,648.779053 284.930206,654.497498 
	C285.216125,660.925232 284.995941,667.375366 284.995941,673.755371 
	C274.882080,674.385864 274.311615,674.853210 271.974762,684.867432 
	C271.459229,687.076782 271.312408,689.372192 270.995789,692.565125 
M208.930771,730.995239 
	C177.483368,731.012878 146.035904,731.000305 114.588608,731.068237 
	C106.054176,731.086609 99.903267,736.205627 99.011330,743.809448 
	C98.150856,751.145020 102.975174,760.291870 110.930992,761.229980 
	C115.422951,761.759705 119.987907,761.826233 124.519966,761.825806 
	C132.378479,761.825012 140.236786,761.597351 148.095520,761.488953 
	C155.219711,761.390747 162.345184,761.221375 169.468521,761.277954 
	C174.817902,761.320496 180.163193,761.770569 185.513275,761.858765 
	C191.461777,761.956848 197.437561,761.507385 203.357941,761.920349 
	C210.566406,762.423096 217.894882,758.451538 220.023178,752.364685 
	C222.831573,744.332764 220.108215,734.068726 208.930771,730.995239 
M494.056671,211.326462 
	C492.816254,208.994553 491.612030,206.642548 490.329742,204.333893 
	C479.690399,185.178848 469.103546,165.994171 458.354553,146.900818 
	C454.033112,139.224686 445.354370,136.607208 438.540710,140.561401 
	C429.651154,145.720322 427.253113,154.013260 432.026093,162.562119 
	C441.656067,179.810272 451.183014,197.115921 460.804413,214.368881 
	C466.254059,224.141083 471.618347,233.969238 477.388153,243.551178 
	C480.534302,248.775970 488.559662,250.721970 494.187622,248.329346 
	C501.726685,245.124283 506.487335,238.227600 504.170166,231.810394 
	C501.682983,224.922363 497.735596,218.561615 494.056671,211.326462 
M784.990356,1345.612183 
	C785.313660,1354.615967 785.698669,1363.618164 785.946228,1372.624023 
	C786.342834,1387.051147 786.609985,1401.481934 787.008545,1415.908936 
	C787.210022,1423.203247 791.154907,1428.377319 797.907776,1429.672974 
	C810.335815,1432.057861 817.783997,1425.526489 817.728577,1415.268555 
	C817.651306,1400.955444 816.561401,1386.650757 816.109436,1372.335938 
	C815.610596,1356.538330 815.604858,1340.721069 814.869873,1324.936401 
	C814.472168,1316.396729 812.058167,1311.339722 801.895569,1309.199829 
	C794.118164,1307.562378 785.866943,1312.529785 785.120483,1320.391235 
	C784.359009,1328.409912 784.974304,1336.559204 784.990356,1345.612183 
M799.997009,107.498344 
	C799.667297,97.891930 799.319214,88.286095 799.013916,78.678902 
	C798.778137,71.261787 799.068909,63.791218 798.264404,56.438652 
	C797.361206,48.184406 792.386719,43.623417 781.347717,43.637989 
	C774.612183,43.646877 768.042542,50.408779 768.023682,57.031738 
	C768.000854,65.065353 768.055237,73.104424 768.330322,81.132423 
	C768.747009,93.291687 769.508972,105.439507 769.888977,117.599541 
	C770.242676,128.914276 770.113464,140.245041 770.529236,151.556534 
	C770.825684,159.623260 777.743652,165.266281 786.343262,165.004669 
	C794.982056,164.741852 801.131531,158.685791 800.978577,150.280960 
	C800.725098,136.351288 800.298462,122.424767 799.997009,107.498344 
M1334.604004,433.047943 
	C1345.406494,426.410797 1356.283081,419.890289 1366.984863,413.094696 
	C1373.890137,408.709930 1380.927856,404.390564 1387.199463,399.189514 
	C1394.210815,393.375153 1389.728271,377.618713 1380.457153,374.895172 
	C1374.579102,373.168518 1370.100098,375.110199 1365.364014,378.148285 
	C1353.881226,385.514130 1342.239990,392.635193 1330.605591,399.761749 
	C1318.390503,407.244110 1306.004883,414.453827 1293.905762,422.117432 
	C1288.820679,425.338348 1283.367554,428.739807 1283.010498,435.862305 
	C1282.652100,443.010193 1285.855835,448.315063 1291.941895,451.803680 
	C1297.313110,454.882538 1302.403076,453.008301 1307.149170,450.135590 
	C1316.162842,444.679871 1325.072632,439.052979 1334.604004,433.047943 
M255.083618,454.355438 
	C260.393005,457.317200 265.638306,460.401733 271.026001,463.213501 
	C280.341156,468.074951 287.388123,465.578552 291.770782,458.114563 
	C297.202148,448.864563 294.889587,442.342987 286.960266,436.958893 
	C282.503937,433.932983 277.580872,431.591278 272.851776,428.970734 
	C250.936646,416.826843 228.997665,404.725861 207.107376,392.537354 
	C199.986862,388.572693 193.063126,390.910919 189.020233,395.605194 
	C183.477417,402.041138 183.202774,411.440491 188.887161,416.109436 
	C193.781250,420.129242 199.468613,423.248138 205.014023,426.397797 
	C221.420090,435.716064 237.929474,444.852448 255.083618,454.355438 
M1092.222656,1273.231567 
	C1093.265503,1274.721191 1094.368652,1276.172363 1095.341919,1277.706177 
	C1105.678467,1293.995361 1115.929443,1310.339355 1126.361084,1326.567261 
	C1128.966797,1330.620850 1132.349365,1333.880737 1137.578003,1334.634888 
	C1144.130737,1335.580444 1149.129517,1333.145142 1153.207275,1328.227783 
	C1156.928833,1323.739624 1157.200317,1318.778564 1154.356812,1313.988525 
	C1149.059692,1305.065308 1143.376953,1296.370850 1137.859131,1287.578369 
	C1127.165161,1270.537720 1116.662109,1253.371704 1105.615234,1236.563110 
	C1103.535400,1233.398315 1099.616211,1230.652588 1095.976196,1229.475830 
	C1089.465088,1227.371216 1083.638550,1229.856812 1079.250977,1235.183228 
	C1075.026489,1240.311768 1075.139160,1245.635864 1078.622314,1251.141235 
	C1083.117310,1258.246216 1087.512207,1265.414551 1092.222656,1273.231567 
M515.941589,1263.419678 
	C516.913513,1261.515259 517.669373,1259.457153 518.895325,1257.733398 
	C523.785034,1250.858032 521.782776,1241.662842 512.958374,1236.533447 
	C506.101135,1232.547852 496.057770,1235.859863 492.143127,1242.977905 
	C481.145874,1262.974976 469.865875,1282.816772 458.898407,1302.829956 
	C454.504486,1310.847778 450.223602,1318.980225 446.684143,1327.394043 
	C444.584351,1332.385376 447.465912,1338.103149 453.200745,1341.513062 
	C457.948822,1344.336182 463.347534,1345.560913 468.671295,1342.817261 
	C475.042053,1339.534058 476.853912,1332.767944 480.043823,1327.099976 
	C491.874847,1306.077637 503.653595,1285.026123 515.941589,1263.419678 
M1311.693359,1044.881836 
	C1328.312134,1054.130737 1344.821899,1063.583984 1361.599121,1072.535889 
	C1369.142456,1076.560913 1375.804077,1082.562256 1385.036499,1083.176392 
	C1391.118286,1083.581177 1397.036987,1079.530762 1399.462646,1072.390991 
	C1401.590210,1066.128418 1399.063721,1058.299683 1393.999512,1055.486450 
	C1367.718262,1040.887207 1341.442627,1026.277588 1315.149658,1011.699707 
	C1307.252075,1007.321045 1300.603027,1008.176514 1294.865845,1015.759399 
	C1290.949219,1020.935974 1289.858398,1032.015625 1297.939575,1036.605957 
	C1302.375244,1039.125488 1306.702271,1041.836060 1311.693359,1044.881836 
M300.938538,1035.145142 
	C300.583862,1034.229126 300.261841,1033.298706 299.869476,1032.399170 
	C296.145386,1023.860535 286.419891,1020.362244 278.930939,1024.875244 
	C254.000793,1039.898193 229.034103,1054.861572 204.199875,1070.041626 
	C201.095261,1071.939331 197.884323,1074.540771 196.158615,1077.620850 
	C193.211151,1082.881592 195.327469,1092.092407 199.312897,1095.727539 
	C204.966751,1100.884644 210.919296,1101.501221 218.303894,1097.182983 
	C227.815491,1091.621094 237.143127,1085.745605 246.585770,1080.064575 
	C259.822571,1072.100708 273.142120,1064.273193 286.328918,1056.227661 
	C293.972198,1051.564331 303.105682,1047.803589 300.938538,1035.145142 
M1076.501099,197.995010 
	C1073.355713,203.577332 1070.170532,209.137772 1067.074707,214.747467 
	C1063.102661,221.944763 1064.700928,230.499557 1070.909790,234.442581 
	C1081.173096,240.960541 1089.195068,238.456604 1095.032959,227.942764 
	C1108.746826,203.244003 1122.547363,178.593430 1136.287720,153.909317 
	C1141.812622,143.984055 1138.937256,135.331192 1128.713989,130.907745 
	C1120.756958,127.464851 1113.499390,131.091766 1108.375732,140.497223 
	C1098.010864,159.524445 1087.421509,178.429428 1076.501099,197.995010 
M1401.500000,712.991272 
	C1395.834839,712.995544 1390.162598,713.182922 1384.506226,712.961914 
	C1375.660645,712.616211 1369.864624,716.471863 1368.163330,726.189575 
	C1366.820312,733.861816 1374.474243,744.012634 1381.651001,743.917969 
	C1392.217529,743.778625 1402.786011,743.797363 1413.353027,743.684631 
	C1432.106323,743.484497 1450.874268,742.691650 1469.606445,743.211609 
	C1480.927856,743.525818 1488.347656,735.280151 1485.910645,723.439819 
	C1484.799561,718.041626 1478.479370,712.329590 1473.307373,712.300537 
	C1464.929443,712.253418 1456.550293,712.196533 1448.173340,712.292847 
	C1432.948242,712.467957 1417.724487,712.752441 1401.500000,712.991272 
z"/>
<path fill="#FDFDFD" opacity="1.000000" stroke="none" 
	d="
M1208.004395,657.010986 
	C1208.004395,695.654480 1208.004517,733.800232 1208.004395,771.945923 
	C1208.004395,779.369507 1207.262085,780.503296 1199.963745,780.931641 
	C1189.717651,781.532959 1179.446167,781.793335 1169.181763,781.954285 
	C1163.687256,782.040466 1162.456665,780.494385 1161.958008,774.855530 
	C1161.731323,772.293274 1161.088623,769.767822 1160.538452,766.686523 
	C1159.493774,767.521057 1158.366943,767.952881 1158.161499,768.654480 
	C1153.933716,783.089111 1138.269409,785.377136 1127.395386,783.591248 
	C1108.210938,780.440491 1100.041382,768.977844 1098.130493,748.975220 
	C1097.029419,737.449524 1096.693359,725.763855 1097.173584,714.198364 
	C1097.655762,702.582153 1101.018311,691.389771 1109.089722,682.609009 
	C1116.742065,674.284241 1126.808472,671.911499 1137.911133,673.390198 
	C1146.992554,674.599670 1155.088135,677.429138 1159.644653,686.681519 
	C1160.028198,686.369812 1160.411621,686.058105 1160.795044,685.746399 
	C1160.528442,683.653931 1160.106445,681.567810 1160.021851,679.467957 
	C1159.628662,669.713562 1159.053223,659.950867 1159.211182,650.201965 
	C1159.245728,648.065125 1161.548218,645.170898 1163.593872,643.992432 
	C1174.928345,637.462646 1187.472778,637.046875 1200.030884,638.261414 
	C1206.072021,638.845642 1207.996582,641.916626 1208.004883,648.017944 
	C1208.008789,650.849670 1208.004883,653.681458 1208.004395,657.010986 
M1159.014404,733.499756 
	C1159.014404,724.192322 1159.076782,714.884094 1158.951660,705.578369 
	C1158.931396,704.070679 1158.493042,702.150269 1157.503174,701.183044 
	C1156.342407,700.048889 1153.511597,698.748718 1152.902344,699.270020 
	C1150.909302,700.975403 1148.482910,703.348816 1148.215942,705.692322 
	C1147.082031,715.649292 1146.190918,725.686951 1146.170654,735.697144 
	C1146.159058,741.462463 1147.862671,747.255249 1149.021606,752.989624 
	C1149.677246,756.232910 1152.181763,758.214722 1155.155518,756.800415 
	C1156.960327,755.941956 1158.641479,753.057251 1158.842163,750.937378 
	C1159.357056,745.501404 1159.014282,739.984192 1159.014404,733.499756 
z"/>
<path fill="#FDFDFD" opacity="1.000000" stroke="none" 
	d="
M1046.327881,782.004089 
	C1039.748657,781.623718 1038.314453,780.199585 1037.968018,774.387390 
	C1037.891846,773.109863 1037.448242,771.856934 1037.214233,770.585266 
	C1037.010254,769.477051 1036.863281,768.358337 1036.609131,766.712891 
	C1035.560547,767.526367 1034.413452,767.947510 1034.205200,768.647888 
	C1031.045166,779.272827 1022.727478,782.927124 1012.914429,783.902405 
	C1004.199890,784.768555 995.930542,782.813171 988.422058,777.968018 
	C980.806396,773.053711 976.767578,765.375549 975.369019,757.220032 
	C971.906372,737.027161 970.404846,716.600464 977.029297,696.625549 
	C982.563416,679.938232 996.673645,670.460022 1015.285828,673.722717 
	C1024.117432,675.270813 1031.022949,678.523987 1036.758911,685.783081 
	C1036.500610,683.361145 1036.104736,680.944763 1036.008301,678.516357 
	C1035.620972,668.759521 1035.122803,658.997620 1035.188477,649.241089 
	C1035.200073,647.522278 1037.366211,645.201477 1039.128540,644.214355 
	C1048.219849,639.122498 1058.126831,637.332947 1068.492554,637.889832 
	C1069.987793,637.970215 1071.487549,637.968811 1072.985474,637.995300 
	C1080.954224,638.136292 1084.003784,641.155640 1084.003906,648.916809 
	C1084.004761,689.891602 1084.004395,730.866455 1084.004395,771.841248 
	C1084.004395,779.416565 1083.083862,780.578735 1075.572021,780.964600 
	C1065.985596,781.456848 1056.384766,781.670471 1046.327881,782.004089 
M1030.461426,757.022705 
	C1034.668457,756.879578 1034.983276,753.822937 1034.992920,750.743347 
	C1035.040283,735.604126 1035.072998,720.464233 1034.927612,705.326294 
	C1034.912354,703.740784 1034.109619,701.695435 1032.955200,700.674561 
	C1029.266357,697.413025 1025.296143,699.729187 1024.068359,706.025208 
	C1021.429077,719.559937 1021.369751,733.249939 1023.263123,746.822449 
	C1023.782104,750.543030 1023.362732,756.269531 1030.461426,757.022705 
z"/>
<path fill="#FDFDFD" opacity="1.000000" stroke="none" 
	d="
M1273.934082,735.957520 
	C1274.714111,739.471558 1274.530273,744.028137 1278.814697,743.704041 
	C1283.054932,743.383179 1281.965576,739.007751 1281.974365,736.002197 
	C1282.019409,720.503662 1282.112671,705.003357 1281.912964,689.507263 
	C1281.862915,685.625000 1283.341675,683.388794 1286.625854,681.705872 
	C1298.442139,675.651367 1311.121216,674.358826 1324.063721,675.124207 
	C1329.842041,675.465942 1331.997925,678.470825 1332.000122,684.404907 
	C1332.010864,713.069153 1332.433716,741.741821 1331.867798,770.394836 
	C1331.426270,792.749634 1320.311279,804.633667 1298.808105,808.702820 
	C1286.593750,811.014160 1273.791504,811.098389 1261.296509,810.732788 
	C1253.117676,810.493408 1244.922607,807.996460 1236.913574,805.845276 
	C1232.304199,804.607178 1229.998047,801.201111 1231.957275,795.975647 
	C1233.784790,791.102234 1234.870483,785.911438 1237.055420,781.220276 
	C1240.394775,774.050842 1240.443604,775.263611 1247.040039,776.432861 
	C1255.728516,777.973022 1264.506958,779.334290 1273.301270,779.860596 
	C1282.723389,780.424316 1284.994873,777.737793 1284.995728,768.393188 
	C1284.995972,765.413330 1284.995728,762.433533 1284.995728,759.070618 
	C1280.416016,761.242432 1276.352173,763.665283 1271.970825,765.153076 
	C1259.646606,769.338074 1247.561768,769.486084 1236.107666,762.072449 
	C1230.589111,758.500610 1227.715576,753.095276 1226.210449,747.208801 
	C1221.153687,727.431396 1221.958740,707.163879 1222.144653,686.993469 
	C1222.159302,685.421509 1223.844360,683.229370 1225.345581,682.406555 
	C1238.037354,675.450439 1251.599609,673.166260 1265.815796,676.110596 
	C1270.219116,677.022522 1272.099243,680.328613 1272.048706,684.950195 
	C1271.917603,696.947693 1271.828369,708.951538 1272.090088,720.944763 
	C1272.196411,725.818115 1273.255371,730.670715 1273.934082,735.957520 
z"/>
<path fill="#FDFDFD" opacity="1.000000" stroke="none" 
	d="
M722.995789,677.000000 
	C722.996460,670.000793 722.660583,663.474915 723.173889,657.016418 
	C723.362427,654.643555 724.992920,651.298767 726.931763,650.328918 
	C739.043396,644.271057 751.829468,641.144470 765.453857,644.047241 
	C771.397949,645.313721 773.231567,647.546265 772.945923,653.731140 
	C772.497864,663.432373 771.665527,673.115540 771.031006,682.808716 
	C770.968689,683.759644 771.151001,684.726685 771.274780,686.455200 
	C774.513123,683.885864 777.142456,681.502075 780.055847,679.540161 
	C792.274109,671.312622 810.445923,670.861816 821.044556,677.980713 
	C827.641968,682.411987 831.059082,689.003113 832.536438,696.315796 
	C836.674377,716.798706 836.261230,737.233032 829.344788,757.135132 
	C824.005798,772.497864 811.799622,779.763916 796.586182,781.834351 
	C785.329895,783.366272 773.839050,784.106445 762.493774,783.778259 
	C752.068848,783.476685 741.641174,781.604126 731.325928,779.790894 
	C724.925476,778.665894 722.996826,775.484009 722.996521,768.988647 
	C722.995056,738.492432 722.995850,707.996216 722.995789,677.000000 
M783.948120,750.066833 
	C784.303955,738.832642 784.834351,727.599731 784.916199,716.363525 
	C784.942993,712.685364 784.123291,708.909973 783.129272,705.335144 
	C781.291626,698.725891 780.019287,698.148193 773.298584,699.666626 
	C773.298584,718.700562 773.298584,737.727844 773.298584,756.725708 
	C781.420654,757.393005 781.420654,757.393005 783.948120,750.066833 
z"/>
<path fill="#FDFDFD" opacity="1.000000" stroke="none" 
	d="
M688.201050,782.271729 
	C685.049805,783.315857 682.274353,784.291992 679.431946,784.999146 
	C673.298035,786.525024 670.832764,785.631226 668.348389,779.481262 
	C665.173401,771.621643 662.744995,763.460571 659.987915,755.431763 
	C659.838989,754.998169 659.626343,754.586487 659.264465,753.752258 
	C656.221497,756.632629 653.482788,759.179016 653.954956,763.730042 
	C654.228577,766.367371 654.003784,769.056396 654.004822,771.722168 
	C654.008545,781.072205 654.848389,779.520508 646.598450,780.588623 
	C634.821350,782.113281 622.784790,781.817078 610.856384,781.894104 
	C606.330078,781.923340 603.919006,779.375305 603.936157,774.270020 
	C604.072449,733.617432 604.063110,692.964111 603.936646,652.311523 
	C603.923706,648.145203 605.982544,645.787109 609.108398,644.005676 
	C620.675476,637.413208 633.366760,637.077942 646.073853,638.269775 
	C650.948853,638.727051 654.268921,642.422180 654.158997,648.197937 
	C653.766113,668.850220 654.004822,689.514465 654.004639,710.174194 
	C654.004639,711.987976 654.004700,713.801697 654.004700,715.615479 
	C654.492371,715.863647 654.980103,716.111816 655.467773,716.359985 
	C656.307861,715.049866 657.555603,713.844177 657.922363,712.412781 
	C660.390930,702.776611 662.616028,693.078491 665.030334,683.427979 
	C667.592834,673.184998 669.202026,671.800049 680.550354,674.197083 
	C688.805481,675.940796 696.900818,678.862122 704.728516,682.082275 
	C711.629761,684.921265 712.959961,688.427856 709.301880,694.988342 
	C703.173584,705.978760 696.209717,716.503357 689.096924,728.035645 
	C692.911438,732.849792 697.914490,738.921448 702.637756,745.203369 
	C706.289001,750.059387 709.822327,755.037415 712.977051,760.223450 
	C715.805481,764.873108 715.056885,768.135742 710.328430,770.825623 
	C703.230286,774.863342 695.822510,778.356812 688.201050,782.271729 
z"/>
<path fill="#FCFCFC" opacity="1.000000" stroke="none" 
	d="
M849.935486,757.090942 
	C849.255615,752.634155 848.120300,748.614197 848.078735,744.582886 
	C847.884949,725.763916 848.103149,706.940735 847.900024,688.121948 
	C847.859619,684.380737 849.233276,682.328369 852.410339,680.868774 
	C864.887207,675.136841 877.872498,673.479004 891.335205,676.072327 
	C895.138611,676.804932 897.181702,679.039307 897.089600,683.423950 
	C896.844727,695.077759 896.877502,706.742065 897.046387,718.398621 
	C897.190613,728.351807 897.571899,738.305054 898.046692,748.248840 
	C898.398499,755.615906 902.258667,758.954468 907.493408,757.087585 
	C910.698303,755.944519 911.033875,753.733643 911.025574,750.869202 
	C910.964966,730.049744 911.077148,709.229309 910.904724,688.411072 
	C910.878052,685.185669 911.699219,682.639587 914.398743,681.347656 
	C926.904724,675.362488 940.217529,674.072388 953.829773,675.408447 
	C959.078064,675.923523 960.677185,679.750793 960.679504,684.504944 
	C960.681824,689.501648 960.682312,694.498413 960.682373,699.495117 
	C960.682617,723.479370 960.682556,747.463562 960.682373,771.447815 
	C960.682312,779.020569 959.510193,780.508179 951.748108,780.948181 
	C941.829163,781.510559 931.889465,781.766479 921.954956,781.971191 
	C916.130005,782.091187 914.651733,780.543030 913.976257,774.762085 
	C913.678772,772.215637 913.162903,769.694702 912.671204,766.706665 
	C911.671875,767.318359 910.798523,767.540405 910.677856,767.972595 
	C907.705688,778.620056 899.176392,782.419861 889.657593,783.759583 
	C881.529785,784.903564 873.377930,783.626282 865.557556,780.292969 
	C855.341309,775.938477 851.714539,767.473938 849.935486,757.090942 
z"/>
<path fill="#FDFDFD" opacity="1.000000" stroke="none" 
	d="
M369.746094,769.097412 
	C364.488281,756.429260 362.973419,744.064697 371.943268,732.900940 
	C378.984375,724.137695 389.272034,720.705872 399.991943,719.084839 
	C408.757568,717.759338 417.640930,717.211975 426.504333,716.316406 
	C426.318939,707.029419 419.874390,701.913208 410.733490,704.778809 
	C403.905212,706.919434 397.250885,709.726013 390.737183,712.711853 
	C387.544373,714.175354 385.471161,714.232788 382.911774,711.558228 
	C377.515930,705.919617 373.728607,699.467651 372.481323,691.817200 
	C372.204559,690.119751 373.687195,687.450500 375.181702,686.264160 
	C382.969055,680.082275 392.445770,677.792297 401.875488,675.590942 
	C419.924622,671.377136 437.807831,671.861023 455.079376,678.900330 
	C466.290131,683.469360 473.261597,692.466125 474.764374,704.246521 
	C476.204254,715.534058 475.798645,727.071289 475.969299,738.502319 
	C476.135895,749.664001 476.005676,760.830078 476.005493,771.994263 
	C476.005371,779.948120 475.851593,780.440002 468.003754,780.927063 
	C457.749268,781.563721 447.463745,781.787720 437.187775,781.955994 
	C431.897186,782.042542 430.374634,780.250427 429.958771,775.014526 
	C429.752960,772.423096 429.175446,769.861145 428.489868,765.547974 
	C424.051666,773.350098 420.568878,780.370483 412.174316,782.473267 
	C404.311188,784.442932 396.648346,784.321045 388.818787,782.464355 
	C380.757935,780.552673 374.294342,776.580688 369.746094,769.097412 
M427.016846,752.889221 
	C427.016846,745.663391 427.016846,738.437622 427.016846,730.953491 
	C422.113098,731.353638 419.081604,733.327881 417.237518,737.257629 
	C415.079681,741.855835 413.816132,746.580933 416.041504,751.413696 
	C417.106445,753.726440 418.654724,756.954590 420.552307,757.412170 
	C422.301392,757.834045 424.810913,755.102783 427.016846,752.889221 
z"/>
<path fill="#FCFCFC" opacity="1.000000" stroke="none" 
	d="
M494.684509,750.756104 
	C499.136688,743.789490 499.464325,743.890808 506.824158,746.306763 
	C514.408630,748.796448 522.081421,751.189270 529.890991,752.742676 
	C533.403931,753.441406 537.408447,752.262573 541.050232,751.367554 
	C542.178955,751.090149 543.842346,748.559692 543.522888,747.729431 
	C542.832031,745.933655 541.281982,743.704773 539.612000,743.193909 
	C534.797668,741.721497 529.730896,741.096130 524.797363,739.986450 
	C516.348450,738.086121 507.544189,736.711304 501.007629,730.400757 
	C494.010193,723.645203 492.339081,715.229675 493.600128,705.602661 
	C494.598145,697.983643 496.842560,691.336670 501.906708,685.538208 
	C508.310760,678.205566 517.310425,675.685364 526.010681,674.329712 
	C543.359070,671.626526 560.934814,671.849487 578.155273,676.035461 
	C591.639587,679.313171 593.669800,683.809387 587.871948,696.373413 
	C586.293823,699.793274 583.993652,702.877197 582.375916,706.282166 
	C580.324402,710.599976 576.936829,710.498108 573.161682,709.613464 
	C565.238953,707.756836 557.364868,705.653381 549.382202,704.109680 
	C545.894470,703.435242 541.466125,704.184509 541.441406,708.445068 
	C541.430786,710.271240 545.700256,712.968140 548.467834,713.805115 
	C556.583252,716.259399 564.995605,717.717346 573.153564,720.048828 
	C584.447876,723.276672 591.281677,733.825562 592.159668,745.494446 
	C593.839539,767.820374 578.135864,779.206665 560.670776,782.065857 
	C539.888367,785.468079 519.332642,784.804321 499.100983,778.995239 
	C488.310791,775.897156 487.375519,773.913818 490.071228,762.998230 
	C491.081329,758.908020 492.966705,755.033997 494.684509,750.756104 
z"/>
<path fill="#FDFDFD" opacity="1.000000" stroke="none" 
	d="
M270.995789,692.096558 
	C271.312408,689.372192 271.459229,687.076782 271.974762,684.867432 
	C274.311615,674.853210 274.882080,674.385864 284.995941,673.755371 
	C284.995941,667.375366 285.216125,660.925232 284.930206,654.497498 
	C284.675812,648.779053 287.737335,645.234009 292.369781,643.401245 
	C301.554077,639.767517 311.235504,637.458801 321.131195,638.205933 
	C325.508118,638.536377 330.323578,640.330444 333.815948,642.955444 
	C336.986450,645.338562 337.341309,649.970459 337.092377,654.298279 
	C336.748566,660.275513 337.016602,666.288086 337.035492,672.285522 
	C337.036499,672.606506 337.156647,672.927124 337.371918,673.994629 
	C340.625153,673.994629 344.084473,674.327515 347.453217,673.917114 
	C352.591461,673.291260 354.790802,676.336121 354.817841,680.389038 
	C354.865936,687.602356 354.612823,694.937317 353.313293,702.005859 
	C352.054352,708.853577 349.668518,709.992249 342.483490,710.003723 
	C340.846558,710.006348 339.209625,710.004150 337.025726,710.004150 
	C337.025726,721.964783 336.504974,733.604309 337.276062,745.157715 
	C337.594849,749.934204 342.855316,751.607422 347.304352,751.876648 
	C351.174774,752.110840 352.801605,754.410583 352.840271,757.375610 
	C352.925995,763.953918 352.677887,770.588989 351.798431,777.097229 
	C351.515411,779.191711 349.044189,782.348755 347.205383,782.632629 
	C340.350372,783.691162 333.336731,784.162170 326.393433,784.066895 
	C321.043518,783.993469 315.640289,783.067261 310.382874,781.947205 
	C298.254486,779.363403 288.650330,769.221619 287.088654,756.980652 
	C285.966125,748.182007 285.476685,739.287476 285.057434,730.419067 
	C284.744751,723.805298 284.995819,717.164917 284.995819,710.768433 
	C284.304901,710.391907 284.034149,710.120361 283.752869,710.108948 
	C272.852478,709.666626 271.061340,707.771545 270.996521,696.563599 
	C270.988800,695.230835 270.995667,693.897949 270.995789,692.096558 
z"/>
<path fill="#FBFBFB" opacity="1.000000" stroke="none" 
	d="
M209.364929,731.005005 
	C220.108215,734.068726 222.831573,744.332764 220.023178,752.364685 
	C217.894882,758.451538 210.566406,762.423096 203.357941,761.920349 
	C197.437561,761.507385 191.461777,761.956848 185.513275,761.858765 
	C180.163193,761.770569 174.817902,761.320496 169.468521,761.277954 
	C162.345184,761.221375 155.219711,761.390747 148.095520,761.488953 
	C140.236786,761.597351 132.378479,761.825012 124.519966,761.825806 
	C119.987907,761.826233 115.422951,761.759705 110.930992,761.229980 
	C102.975174,760.291870 98.150856,751.145020 99.011330,743.809448 
	C99.903267,736.205627 106.054176,731.086609 114.588608,731.068237 
	C146.035904,731.000305 177.483368,731.012878 209.364929,731.005005 
z"/>
<path fill="#FBFBFB" opacity="1.000000" stroke="none" 
	d="
M494.241028,211.648621 
	C497.735596,218.561615 501.682983,224.922363 504.170166,231.810394 
	C506.487335,238.227600 501.726685,245.124283 494.187622,248.329346 
	C488.559662,250.721970 480.534302,248.775970 477.388153,243.551178 
	C471.618347,233.969238 466.254059,224.141083 460.804413,214.368881 
	C451.183014,197.115921 441.656067,179.810272 432.026093,162.562119 
	C427.253113,154.013260 429.651154,145.720322 438.540710,140.561401 
	C445.354370,136.607208 454.033112,139.224686 458.354553,146.900818 
	C469.103546,165.994171 479.690399,185.178848 490.329742,204.333893 
	C491.612030,206.642548 492.816254,208.994553 494.241028,211.648621 
z"/>
<path fill="#FBFBFB" opacity="1.000000" stroke="none" 
	d="
M784.988586,1345.131836 
	C784.974304,1336.559204 784.359009,1328.409912 785.120483,1320.391235 
	C785.866943,1312.529785 794.118164,1307.562378 801.895569,1309.199829 
	C812.058167,1311.339722 814.472168,1316.396729 814.869873,1324.936401 
	C815.604858,1340.721069 815.610596,1356.538330 816.109436,1372.335938 
	C816.561401,1386.650757 817.651306,1400.955444 817.728577,1415.268555 
	C817.783997,1425.526489 810.335815,1432.057861 797.907776,1429.672974 
	C791.154907,1428.377319 787.210022,1423.203247 787.008545,1415.908936 
	C786.609985,1401.481934 786.342834,1387.051147 785.946228,1372.624023 
	C785.698669,1363.618164 785.313660,1354.615967 784.988586,1345.131836 
z"/>
<path fill="#FBFBFB" opacity="1.000000" stroke="none" 
	d="
M799.970825,107.997635 
	C800.298462,122.424767 800.725098,136.351288 800.978577,150.280960 
	C801.131531,158.685791 794.982056,164.741852 786.343262,165.004669 
	C777.743652,165.266281 770.825684,159.623260 770.529236,151.556534 
	C770.113464,140.245041 770.242676,128.914276 769.888977,117.599541 
	C769.508972,105.439507 768.747009,93.291687 768.330322,81.132423 
	C768.055237,73.104424 768.000854,65.065353 768.023682,57.031738 
	C768.042542,50.408779 774.612183,43.646877 781.347717,43.637989 
	C792.386719,43.623417 797.361206,48.184406 798.264404,56.438652 
	C799.068909,63.791218 798.778137,71.261787 799.013916,78.678902 
	C799.319214,88.286095 799.667297,97.891930 799.970825,107.997635 
z"/>
<path fill="#FBFBFB" opacity="1.000000" stroke="none" 
	d="
M1334.314819,433.272583 
	C1325.072632,439.052979 1316.162842,444.679871 1307.149170,450.135590 
	C1302.403076,453.008301 1297.313110,454.882538 1291.941895,451.803680 
	C1285.855835,448.315063 1282.652100,443.010193 1283.010498,435.862305 
	C1283.367554,428.739807 1288.820679,425.338348 1293.905762,422.117432 
	C1306.004883,414.453827 1318.390503,407.244110 1330.605591,399.761749 
	C1342.239990,392.635193 1353.881226,385.514130 1365.364014,378.148285 
	C1370.100098,375.110199 1374.579102,373.168518 1380.457153,374.895172 
	C1389.728271,377.618713 1394.210815,393.375153 1387.199463,399.189514 
	C1380.927856,404.390564 1373.890137,408.709930 1366.984863,413.094696 
	C1356.283081,419.890289 1345.406494,426.410797 1334.314819,433.272583 
z"/>
<path fill="#FBFBFB" opacity="1.000000" stroke="none" 
	d="
M254.741028,454.207703 
	C237.929474,444.852448 221.420090,435.716064 205.014023,426.397797 
	C199.468613,423.248138 193.781250,420.129242 188.887161,416.109436 
	C183.202774,411.440491 183.477417,402.041138 189.020233,395.605194 
	C193.063126,390.910919 199.986862,388.572693 207.107376,392.537354 
	C228.997665,404.725861 250.936646,416.826843 272.851776,428.970734 
	C277.580872,431.591278 282.503937,433.932983 286.960266,436.958893 
	C294.889587,442.342987 297.202148,448.864563 291.770782,458.114563 
	C287.388123,465.578552 280.341156,468.074951 271.026001,463.213501 
	C265.638306,460.401733 260.393005,457.317200 254.741028,454.207703 
z"/>
<path fill="#FBFBFB" opacity="1.000000" stroke="none" 
	d="
M1092.086426,1272.893555 
	C1087.512207,1265.414551 1083.117310,1258.246216 1078.622314,1251.141235 
	C1075.139160,1245.635864 1075.026489,1240.311768 1079.250977,1235.183228 
	C1083.638550,1229.856812 1089.465088,1227.371216 1095.976196,1229.475830 
	C1099.616211,1230.652588 1103.535400,1233.398315 1105.615234,1236.563110 
	C1116.662109,1253.371704 1127.165161,1270.537720 1137.859131,1287.578369 
	C1143.376953,1296.370850 1149.059692,1305.065308 1154.356812,1313.988525 
	C1157.200317,1318.778564 1156.928833,1323.739624 1153.207275,1328.227783 
	C1149.129517,1333.145142 1144.130737,1335.580444 1137.578003,1334.634888 
	C1132.349365,1333.880737 1128.966797,1330.620850 1126.361084,1326.567261 
	C1115.929443,1310.339355 1105.678467,1293.995361 1095.341919,1277.706177 
	C1094.368652,1276.172363 1093.265503,1274.721191 1092.086426,1272.893555 
z"/>
<path fill="#FBFBFB" opacity="1.000000" stroke="none" 
	d="
M515.696777,1263.702637 
	C503.653595,1285.026123 491.874847,1306.077637 480.043823,1327.099976 
	C476.853912,1332.767944 475.042053,1339.534058 468.671295,1342.817261 
	C463.347534,1345.560913 457.948822,1344.336182 453.200745,1341.513062 
	C447.465912,1338.103149 444.584351,1332.385376 446.684143,1327.394043 
	C450.223602,1318.980225 454.504486,1310.847778 458.898407,1302.829956 
	C469.865875,1282.816772 481.145874,1262.974976 492.143127,1242.977905 
	C496.057770,1235.859863 506.101135,1232.547852 512.958374,1236.533447 
	C521.782776,1241.662842 523.785034,1250.858032 518.895325,1257.733398 
	C517.669373,1259.457153 516.913513,1261.515259 515.696777,1263.702637 
z"/>
<path fill="#FBFBFB" opacity="1.000000" stroke="none" 
	d="
M1311.385864,1044.671143 
	C1306.702271,1041.836060 1302.375244,1039.125488 1297.939575,1036.605957 
	C1289.858398,1032.015625 1290.949219,1020.935974 1294.865845,1015.759399 
	C1300.603027,1008.176514 1307.252075,1007.321045 1315.149658,1011.699707 
	C1341.442627,1026.277588 1367.718262,1040.887207 1393.999512,1055.486450 
	C1399.063721,1058.299683 1401.590210,1066.128418 1399.462646,1072.390991 
	C1397.036987,1079.530762 1391.118286,1083.581177 1385.036499,1083.176392 
	C1375.804077,1082.562256 1369.142456,1076.560913 1361.599121,1072.535889 
	C1344.821899,1063.583984 1328.312134,1054.130737 1311.385864,1044.671143 
z"/>
<path fill="#FBFBFB" opacity="1.000000" stroke="none" 
	d="
M300.969604,1035.570068 
	C303.105682,1047.803589 293.972198,1051.564331 286.328918,1056.227661 
	C273.142120,1064.273193 259.822571,1072.100708 246.585770,1080.064575 
	C237.143127,1085.745605 227.815491,1091.621094 218.303894,1097.182983 
	C210.919296,1101.501221 204.966751,1100.884644 199.312897,1095.727539 
	C195.327469,1092.092407 193.211151,1082.881592 196.158615,1077.620850 
	C197.884323,1074.540771 201.095261,1071.939331 204.199875,1070.041626 
	C229.034103,1054.861572 254.000793,1039.898193 278.930939,1024.875244 
	C286.419891,1020.362244 296.145386,1023.860535 299.869476,1032.399170 
	C300.261841,1033.298706 300.583862,1034.229126 300.969604,1035.570068 
z"/>
<path fill="#FBFBFB" opacity="1.000000" stroke="none" 
	d="
M1076.712891,197.689911 
	C1087.421509,178.429428 1098.010864,159.524445 1108.375732,140.497223 
	C1113.499390,131.091766 1120.756958,127.464851 1128.713989,130.907745 
	C1138.937256,135.331192 1141.812622,143.984055 1136.287720,153.909317 
	C1122.547363,178.593430 1108.746826,203.244003 1095.032959,227.942764 
	C1089.195068,238.456604 1081.173096,240.960541 1070.909790,234.442581 
	C1064.700928,230.499557 1063.102661,221.944763 1067.074707,214.747467 
	C1070.170532,209.137772 1073.355713,203.577332 1076.712891,197.689911 
z"/>
<path fill="#FBFBFB" opacity="1.000000" stroke="none" 
	d="
M1402.000000,712.991272 
	C1417.724487,712.752441 1432.948242,712.467957 1448.173340,712.292847 
	C1456.550293,712.196533 1464.929443,712.253418 1473.307373,712.300537 
	C1478.479370,712.329590 1484.799561,718.041626 1485.910645,723.439819 
	C1488.347656,735.280151 1480.927856,743.525818 1469.606445,743.211609 
	C1450.874268,742.691650 1432.106323,743.484497 1413.353027,743.684631 
	C1402.786011,743.797363 1392.217529,743.778625 1381.651001,743.917969 
	C1374.474243,744.012634 1366.820312,733.861816 1368.163330,726.189575 
	C1369.864624,716.471863 1375.660645,712.616211 1384.506226,712.961914 
	C1390.162598,713.182922 1395.834839,712.995544 1402.000000,712.991272 
z"/>
<path fill="#070707" opacity="1.000000" stroke="none" 
	d="
M1159.014404,733.999634 
	C1159.014282,739.984192 1159.357056,745.501404 1158.842163,750.937378 
	C1158.641479,753.057251 1156.960327,755.941956 1155.155518,756.800415 
	C1152.181763,758.214722 1149.677246,756.232910 1149.021606,752.989624 
	C1147.862671,747.255249 1146.159058,741.462463 1146.170654,735.697144 
	C1146.190918,725.686951 1147.082031,715.649292 1148.215942,705.692322 
	C1148.482910,703.348816 1150.909302,700.975403 1152.902344,699.270020 
	C1153.511597,698.748718 1156.342407,700.048889 1157.503174,701.183044 
	C1158.493042,702.150269 1158.931396,704.070679 1158.951660,705.578369 
	C1159.076782,714.884094 1159.014404,724.192322 1159.014404,733.999634 
z"/>
<path fill="#070707" opacity="1.000000" stroke="none" 
	d="
M1030.044434,757.022827 
	C1023.362732,756.269531 1023.782104,750.543030 1023.263123,746.822449 
	C1021.369751,733.249939 1021.429077,719.559937 1024.068359,706.025208 
	C1025.296143,699.729187 1029.266357,697.413025 1032.955200,700.674561 
	C1034.109619,701.695435 1034.912354,703.740784 1034.927612,705.326294 
	C1035.072998,720.464233 1035.040283,735.604126 1034.992920,750.743347 
	C1034.983276,753.822937 1034.668457,756.879578 1030.044434,757.022827 
z"/>
<path fill="#080808" opacity="1.000000" stroke="none" 
	d="
M783.796570,750.464111 
	C781.420654,757.393005 781.420654,757.393005 773.298584,756.725708 
	C773.298584,737.727844 773.298584,718.700562 773.298584,699.666626 
	C780.019287,698.148193 781.291626,698.725891 783.129272,705.335144 
	C784.123291,708.909973 784.942993,712.685364 784.916199,716.363525 
	C784.834351,727.599731 784.303955,738.832642 783.796570,750.464111 
z"/>
<path fill="#0A0A0A" opacity="1.000000" stroke="none" 
	d="
M427.001160,753.324829 
	C424.810913,755.102783 422.301392,757.834045 420.552307,757.412170 
	C418.654724,756.954590 417.106445,753.726440 416.041504,751.413696 
	C413.816132,746.580933 415.079681,741.855835 417.237518,737.257629 
	C419.081604,733.327881 422.113098,731.353638 427.016846,730.953491 
	C427.016846,738.437622 427.016846,745.663391 427.001160,753.324829 
z"/>
</svg>