# Blender v3.2.1 OBJ File: 'isometric room test.blend'
# www.blender.org
mtllib Dest_1.mtl
o Dest_Plane
v -0.018526 0.341619 -0.636095
v 0.964869 0.341619 -0.636095
v -0.018526 0.341619 -0.966917
v 0.964869 0.341619 -0.966917
v 0.639455 0.341619 -0.636095
v 0.639455 0.341619 -0.966917
v 0.964869 0.341619 -0.170225
v 0.639455 0.341619 -0.170225
v -0.018526 0.341619 -0.636095
v -0.018526 0.341619 -0.966917
v -0.247215 0.341619 -0.636095
v -0.247215 0.341619 -0.966917
v 0.964869 0.341619 -0.062504
v 0.639455 0.341619 -0.062504
v -0.018526 0.326868 -0.636095
v 0.964869 0.326868 -0.636095
v -0.018526 0.326868 -0.966917
v 0.964869 0.326868 -0.966917
v 0.639455 0.326868 -0.636095
v 0.639455 0.326868 -0.966917
v 0.964869 0.326868 -0.170225
v 0.639455 0.326868 -0.170225
v -0.018526 0.326868 -0.636095
v -0.018526 0.326868 -0.966917
v -0.247215 0.326868 -0.636095
v -0.247215 0.326868 -0.966917
v 0.964869 0.326868 -0.062504
v 0.639455 0.326868 -0.062504
vt 0.669091 0.000000
vt 1.000000 0.000000
vt 1.000000 1.000000
vt 0.669091 1.000000
vt 0.000000 0.000000
vt 0.000000 1.000000
vt 0.669091 0.000000
vt 1.000000 0.000000
vt 0.000000 1.000000
vt 0.000000 0.000000
vt 0.000000 1.000000
vt 0.000000 0.000000
vt 0.669091 0.000000
vt 1.000000 0.000000
vt 0.669091 0.000000
vt 0.669091 1.000000
vt 1.000000 1.000000
vt 1.000000 0.000000
vt 0.000000 0.000000
vt 0.000000 1.000000
vt 1.000000 0.000000
vt 0.669091 0.000000
vt 0.000000 0.000000
vt 0.000000 1.000000
vt 0.000000 0.000000
vt 0.000000 1.000000
vt 1.000000 0.000000
vt 0.669091 0.000000
vn 0.0000 1.0000 0.0000
vn 0.0000 0.0000 1.0000
vn 0.0000 -1.0000 0.0000
vn 1.0000 0.0000 0.0000
vn 0.0000 0.0000 -1.0000
vn -1.0000 0.0000 0.0000
usemtl None
s off
f 5/1/1 2/2/1 4/3/1 6/4/1
f 1/5/1 5/1/1 6/4/1 3/6/1
f 2/2/1 5/1/1 8/7/1 7/8/1
f 1/5/2 3/6/2 10/9/2 9/10/2
f 9/10/1 10/9/1 12/11/1 11/12/1
f 7/8/1 8/7/1 14/13/1 13/14/1
f 19/15/3 20/16/3 18/17/3 16/18/3
f 15/19/3 17/20/3 20/16/3 19/15/3
f 16/18/3 21/21/3 22/22/3 19/15/3
f 15/19/2 23/23/2 24/24/2 17/20/2
f 23/23/3 25/25/3 26/26/3 24/24/3
f 21/21/3 27/27/3 28/28/3 22/22/3
f 4/3/4 2/2/4 16/18/4 18/17/4
f 3/6/5 6/4/5 20/16/5 17/20/5
f 5/1/2 1/5/2 15/19/2 19/15/2
f 6/4/5 4/3/5 18/17/5 20/16/5
f 2/2/4 7/8/4 21/21/4 16/18/4
f 8/7/6 5/1/6 19/15/6 22/22/6
f 1/5/2 9/10/2 23/23/2 15/19/2
f 10/9/2 3/6/2 17/20/2 24/24/2
f 11/12/6 12/11/6 26/26/6 25/25/6
f 9/10/2 11/12/2 25/25/2 23/23/2
f 12/11/5 10/9/5 24/24/5 26/26/5
f 13/14/2 14/13/2 28/28/2 27/27/2
f 7/8/4 13/14/4 27/27/4 21/21/4
f 14/13/6 8/7/6 22/22/6 28/28/6
